<svg id="Group_202" data-name="Group 202" xmlns="http://www.w3.org/2000/svg" width="759.597" height="342.446" viewBox="0 0 759.597 342.446">
  <path id="Path_6" data-name="Path 6" d="M1975.787,718.442V558.381h78.82c31.341,0,48.213,16.872,48.213,43.631A32.378,32.378,0,0,1,2083.3,631.9c13.5,5.063,24.349,15.909,24.349,38.814,0,29.165-19.527,47.727-59.782,47.727Zm32.3-132.339v34.71h42.184c13.26,0,20.252-6.026,20.252-17.353,0-12.294-6.509-17.357-22.179-17.357Zm42.426,105.1c15.428,0,24.587-9.88,24.587-22.9,0-13.98-9.159-20.248-24.1-20.248h-42.91V691.2Z" transform="translate(-1975.787 -558.381)" fill="#000"/>
  <path id="Path_7" data-name="Path 7" d="M2019.514,718.442V558.381h33.5V718.442Z" transform="translate(-1876.316 -558.381)" fill="#000"/>
  <path id="Path_8" data-name="Path 8" d="M2128.038,718.442v-41.22c0-15.428-5.784-21.457-25.07-21.457h-35.676v62.677H2034.75V558.381h81.233c29.649,0,49.173,19.767,49.173,46.283,0,17.111-8.436,31.576-23.864,37.123,14.226,4.579,19.529,12.533,19.529,31.333v45.321ZM2067.292,586.1v42.665h41.946c17.832,0,24.585-8.921,24.585-21.215,0-12.532-6.753-21.45-23.385-21.45Z" transform="translate(-1841.656 -558.381)" fill="#000"/>
  <path id="Path_9" data-name="Path 9" d="M2077.3,718.442V558.381h61.951c43.387,0,74.242,29.651,74.242,78.344s-27.721,81.717-69.18,81.717Zm60.261-27.244c29.169,0,41.705-18.316,41.705-54.473s-12.536-50.623-44.6-50.623h-24.828V691.2Z" transform="translate(-1744.866 -558.381)" fill="#000"/>
  <path id="Path_10" data-name="Path 10" d="M1975.787,772.441V612.381h33.508V743.272h79.3v29.169Z" transform="translate(-1975.787 -435.54)" fill="#000"/>
  <path id="Path_11" data-name="Path 11" d="M2116.837,772.441l-10.126-33.026h-59.059l-11.33,33.026h-35.434l57.129-160.061h38.81l56.406,160.061ZM2077.061,648.3h-.242l-20.492,63.636h40.744Z" transform="translate(-1918.684 -435.54)" fill="#000"/>
  <path id="Path_12" data-name="Path 12" d="M2138.566,772.441v-41.22c0-15.428-5.785-21.457-25.072-21.457h-35.673v62.677h-32.544V612.381h81.235c29.65,0,49.179,19.767,49.179,46.283,0,17.111-8.443,31.576-23.869,37.123,14.221,4.578,19.525,12.533,19.525,31.334v45.32ZM2077.821,640.1v42.665h41.939c17.84,0,24.59-8.921,24.59-21.215,0-12.533-6.75-21.45-23.383-21.45Z" transform="translate(-1817.71 -435.54)" fill="#000"/>
  <path id="Path_13" data-name="Path 13" d="M2180.793,663.31c-1.687-16.391-11.569-24.349-31.817-24.349-18.8,0-28.686,6.753-28.686,18.8,0,10.123,6.99,15.909,24.827,20.248,18.077,4.339,35.676,8.678,47.489,13.981,13.979,6.268,25.067,16.151,25.067,38.81,0,35.194-26.515,50.865-63.878,50.865-39.533,0-67.017-17.6-67.737-53.518h32.3c.482,16.394,14.228,26.517,35.676,26.517,19.769,0,31.1-8.436,31.1-22.659,0-9.4-4.819-15.909-24.831-20.245-19.767-4.343-32.54-7.234-43.867-12.294-17.117-7.716-26.76-19.286-26.76-39.538,0-28.684,19.525-49.171,58.576-49.171,40.5,0,63.156,21.935,64.359,52.548Z" transform="translate(-1724.939 -439.223)" fill="#000"/>
  <path id="Path_14" data-name="Path 14" d="M2128.754,772.441V612.381H2246.39v27.961h-85.1v34.232h78.345v28.2h-78.345V744h88.954v28.446Z" transform="translate(-1627.813 -435.54)" fill="#000"/>
  <path id="Path_15" data-name="Path 15" d="M2267.468,772.441l-68.456-107.509V772.441h-31.1V612.381h35.436l63.639,102.932V612.381h31.334V772.441Z" transform="translate(-1538.728 -435.54)" fill="#000"/>
</svg>
