<svg id="BL_ICon_Logo" xmlns="http://www.w3.org/2000/svg" xmlns:xlink="http://www.w3.org/1999/xlink" width="171.832" height="119.5" viewBox="0 0 171.832 119.5">
  <defs>
    <clipPath id="clip-path">
      <rect id="Rectangle_244" data-name="Rectangle 244" width="171.832" height="119.5" fill="none"/>
    </clipPath>
  </defs>
  <g id="Group_223" data-name="Group 223" clip-path="url(#clip-path)">
    <path id="Path_199" data-name="Path 199" d="M81.553,16.9H70.719a2.962,2.962,0,0,1-2.956-2.958V3.111A3.114,3.114,0,0,0,64.651,0H3.111A3.114,3.114,0,0,0,0,3.111V115.357a3.114,3.114,0,0,0,3.111,3.111H64.678a3.114,3.114,0,0,0,3.111-3.111V104.524a.676.676,0,0,0-.007-.085.4.4,0,0,1-.006-.049,2.935,2.935,0,0,1,2.758-2.814c.025,0,.049,0,.072.008a.8.8,0,0,0,.113.01H81.553a3.114,3.114,0,0,0,3.111-3.111V70.719a3.114,3.114,0,0,0-3.111-3.111H70.719a2.946,2.946,0,0,1-2.943-2.818.5.5,0,0,1,.006-.051.6.6,0,0,0,.007-.08V53.826a.655.655,0,0,0-.007-.084c0-.017-.006-.035-.006-.045a2.947,2.947,0,0,1,2.944-2.829H81.553a3.116,3.116,0,0,0,3.111-3.12V20.013A3.114,3.114,0,0,0,81.553,16.9M64.687,50.709l-.036,0H53.818a.365.365,0,0,0-.058.005.226.226,0,0,1-.033,0H47.841a.228.228,0,0,1-.034,0,.364.364,0,0,0-.058-.005H36.915a.365.365,0,0,0-.058.005.226.226,0,0,1-.033,0H30.939a.228.228,0,0,1-.034,0,.364.364,0,0,0-.058-.005H20.013a.365.365,0,0,0-.058.005.223.223,0,0,1-.033,0H17.056V17.056H64.65a2.961,2.961,0,0,1,2.958,2.958V47.758h0a2.968,2.968,0,0,1-2.921,2.952M64.65,101.4l-47.595.009V67.771H64.678l.029,0a2.97,2.97,0,0,1,2.9,2.951V98.446h0A2.961,2.961,0,0,1,64.65,101.4m.612-84.486Z" transform="translate(0)" fill="#fff"/>
    <line id="Line_52" data-name="Line 52" x1="0.001" transform="translate(159.062 99.676)" fill="#fff"/>
    <path id="Path_200" data-name="Path 200" d="M496.225,106.086H441.294a2.962,2.962,0,0,1-2.956-2.958h0V7.784a3.114,3.114,0,0,0-3.111-3.111H424.39a3.114,3.114,0,0,0-3.111,3.111v95.345a3.119,3.119,0,0,0,2.484,3.048,3.157,3.157,0,0,0,.627.064h10.834a2.961,2.961,0,0,1,2.958,2.958h0v10.833a3.114,3.114,0,0,0,3.111,3.111h54.932a3.923,3.923,0,0,0,3.923-3.923V110.01a3.923,3.923,0,0,0-3.923-3.923" transform="translate(-328.317 -3.642)" fill="#fff"/>
  </g>
</svg>
